<?xml version="1.0" encoding="utf-8"?>
<!-- Generator: Adobe Illustrator 16.0.0, SVG Export Plug-In . SVG Version: 6.00 Build 0)  -->
<!DOCTYPE svg PUBLIC "-//W3C//DTD SVG 1.1//EN" "http://www.w3.org/Graphics/SVG/1.1/DTD/svg11.dtd">
<svg version="1.1" id="Layer_1" xmlns="http://www.w3.org/2000/svg" xmlns:xlink="http://www.w3.org/1999/xlink" x="0px" y="0px"
	 width="137.521px" height="31.25px" viewBox="0 0 137.521 31.25" enable-background="new 0 0 137.521 31.25" xml:space="preserve">
<g>
	<g>
		<path fill="#001427" d="M7.157,29.753c-1.881-0.512-3.417-1.239-4.606-2.18C2.135,27.27,1.838,26.946,1.659,26.6
			c-0.181-0.346-0.27-0.782-0.27-1.307c0-0.692,0.214-1.3,0.643-1.827c0.429-0.525,0.918-0.789,1.472-0.789
			c0.304,0,0.603,0.049,0.894,0.145c0.29,0.098,0.643,0.271,1.057,0.52c1.19,0.747,2.393,1.293,3.61,1.638
			c1.217,0.346,2.56,0.518,4.025,0.518c1.827,0,3.223-0.304,4.19-0.912c0.969-0.608,1.454-1.479,1.454-2.614
			c0-0.858-0.451-1.55-1.349-2.075c-0.9-0.525-2.498-1.023-4.793-1.494c-2.572-0.525-4.626-1.162-6.161-1.91
			c-1.535-0.746-2.656-1.673-3.362-2.779c-0.706-1.105-1.057-2.448-1.057-4.025c0-1.743,0.503-3.313,1.514-4.709
			C4.535,3.584,5.933,2.49,7.717,1.702C9.5,0.914,11.513,0.52,13.755,0.52c3.927,0,7.164,0.981,9.708,2.946
			c0.416,0.331,0.712,0.67,0.893,1.017c0.179,0.346,0.269,0.767,0.269,1.265c0,0.692-0.214,1.302-0.642,1.827
			c-0.431,0.525-0.92,0.789-1.474,0.789c-0.304,0-0.588-0.042-0.851-0.125c-0.264-0.083-0.63-0.263-1.099-0.54
			c-1.135-0.718-2.178-1.258-3.132-1.618c-0.956-0.36-2.166-0.541-3.632-0.541c-1.687,0-3.016,0.326-3.983,0.976
			C8.843,7.166,8.36,8.059,8.36,9.192c0,0.664,0.186,1.21,0.559,1.639c0.375,0.429,0.996,0.809,1.867,1.142
			c0.872,0.331,2.111,0.677,3.715,1.037c3.762,0.831,6.466,1.896,8.113,3.194c1.645,1.302,2.468,3.086,2.468,5.354
			c0,1.77-0.491,3.333-1.474,4.689c-0.981,1.356-2.364,2.406-4.149,3.154c-1.784,0.747-3.853,1.12-6.203,1.12
			C11.07,30.52,9.038,30.265,7.157,29.753z"/>
		<path fill="#001427" d="M33.339,29.171c-1.631-0.871-2.89-2.101-3.775-3.692c-0.887-1.591-1.327-3.465-1.327-5.623
			s0.44-4.032,1.327-5.623c0.885-1.59,2.144-2.814,3.775-3.672c1.633-0.858,3.527-1.287,5.685-1.287s4.052,0.429,5.685,1.287
			s2.891,2.082,3.777,3.672c0.885,1.59,1.327,3.465,1.327,5.623s-0.442,4.032-1.327,5.623c-0.886,1.592-2.144,2.821-3.777,3.692
			c-1.633,0.873-3.527,1.309-5.685,1.309S34.972,30.044,33.339,29.171z M43.589,19.856c0-1.964-0.395-3.429-1.184-4.398
			c-0.788-0.967-1.915-1.452-3.382-1.452c-3.042,0-4.564,1.95-4.564,5.851s1.521,5.85,4.564,5.85S43.589,23.756,43.589,19.856z"/>
		<path fill="#001427" d="M62.054,6.495c-0.498,0.608-0.746,1.466-0.746,2.572v0.706h2.904c1.881,0,2.821,0.789,2.821,2.366
			c0,1.55-0.94,2.323-2.821,2.323h-2.904v12.947c0,0.969-0.297,1.702-0.894,2.2c-0.594,0.496-1.333,0.746-2.218,0.746
			c-0.914,0-1.668-0.25-2.263-0.746c-0.594-0.498-0.892-1.231-0.892-2.2V14.461h-1.66c-1.854,0-2.781-0.773-2.781-2.323
			c0-1.577,0.927-2.366,2.781-2.366h1.66c0-2.656,0.733-4.744,2.199-6.266c1.467-1.521,3.486-2.379,6.058-2.573l1.079-0.083
			l0.748-0.041c1.908,0,2.864,0.732,2.864,2.198c0,1.438-0.804,2.227-2.408,2.365l-1.079,0.083
			C63.368,5.54,62.552,5.886,62.054,6.495z"/>
		<path fill="#001427" d="M80.934,26.454c0.387,0.36,0.581,0.885,0.581,1.577c0,0.802-0.317,1.41-0.954,1.825
			s-1.55,0.581-2.739,0.498l-1.162-0.083c-4.842-0.389-7.262-2.919-7.262-7.595v-8.216h-1.66c-0.914,0-1.606-0.199-2.075-0.601
			c-0.469-0.4-0.706-0.976-0.706-1.722c0-0.773,0.236-1.363,0.706-1.763c0.469-0.402,1.162-0.603,2.075-0.603h1.66V6.536
			c0-0.912,0.284-1.631,0.851-2.158c0.565-0.525,1.333-0.789,2.303-0.789c0.968,0,1.728,0.264,2.281,0.789
			c0.554,0.527,0.831,1.246,0.831,2.158v3.236h2.904c1.881,0,2.821,0.789,2.821,2.366c0,0.746-0.235,1.322-0.704,1.722
			c-0.471,0.402-1.177,0.601-2.117,0.601h-2.904v8.673c0,0.829,0.192,1.459,0.581,1.888c0.387,0.429,0.954,0.67,1.702,0.726
			l1.162,0.083C79.938,25.887,80.546,26.095,80.934,26.454z"/>
		<path fill="#001427" d="M87.944,29.171c-1.631-0.871-2.89-2.101-3.775-3.692c-0.887-1.591-1.327-3.465-1.327-5.623
			s0.44-4.032,1.327-5.623c0.885-1.59,2.144-2.814,3.775-3.672c1.633-0.858,3.527-1.287,5.685-1.287s4.052,0.429,5.685,1.287
			s2.891,2.082,3.777,3.672c0.885,1.59,1.327,3.465,1.327,5.623s-0.442,4.032-1.327,5.623c-0.886,1.592-2.144,2.821-3.777,3.692
			c-1.633,0.873-3.527,1.309-5.685,1.309S89.577,30.044,87.944,29.171z M98.195,19.856c0-1.964-0.395-3.429-1.184-4.398
			c-0.788-0.967-1.915-1.452-3.382-1.452c-3.042,0-4.563,1.95-4.563,5.851s1.521,5.85,4.563,5.85S98.195,23.756,98.195,19.856z"/>
		<path fill="#001427" d="M126.453,11.412c1.19,1.425,1.785,3.576,1.785,6.453v9.585c0,0.912-0.284,1.631-0.851,2.158
			c-0.567,0.525-1.334,0.787-2.303,0.787c-0.967,0-1.729-0.262-2.281-0.787c-0.554-0.527-0.831-1.246-0.831-2.158v-9.295
			c0-1.385-0.257-2.393-0.769-3.031c-0.512-0.635-1.307-0.954-2.386-0.954c-1.3,0-2.343,0.416-3.132,1.246
			c-0.789,0.829-1.184,1.937-1.184,3.319v8.714c0,0.912-0.277,1.631-0.829,2.158c-0.554,0.525-1.315,0.787-2.283,0.787
			c-0.969,0-1.736-0.262-2.303-0.787c-0.567-0.527-0.851-1.246-0.851-2.158v-15.23c0-0.856,0.297-1.548,0.893-2.075
			c0.594-0.525,1.362-0.788,2.303-0.788c0.856,0,1.555,0.256,2.096,0.768c0.539,0.512,0.809,1.168,0.809,1.97v0.583
			c0.719-1.107,1.653-1.952,2.801-2.533c1.148-0.581,2.441-0.871,3.88-0.871C123.451,9.274,125.264,9.987,126.453,11.412z"/>
	</g>
	<circle fill="#00A6FB" cx="133.999" cy="26.793" r="2.714"/>
</g>
</svg>
